<svg width="32" height="32" viewBox="0 0 32 32" fill="none" xmlns="http://www.w3.org/2000/svg">
<path d="M16 0C24.8366 0 32 7.16344 32 16C32 24.8366 24.8366 32 16 32C7.16344 32 0 24.8366 0 16C0 13.5787 0.537364 11.2828 1.5 9.22559V10C1.5 10.3495 1.4988 10.7638 1.5 11.2266V13H1.52441C1.60399 15.8913 1.92884 19.5871 3.22461 21.7344C5.41512 26.607 10.3113 30 16 30C23.732 30 30 23.732 30 16C30 12.2729 28.5428 8.88662 26.168 6.37793C22.461 2.03021 15.4069 1.0715 11 1.00586V1H10.4199C12.1573 0.353398 14.0374 0 16 0Z" fill="#D9D9D9"/>
</svg>
